<mxfile host="app.diagrams.net" agent="Mozilla/5.0 (Macintosh; Intel Mac OS X 10_15_7) AppleWebKit/605.1.15 (KHTML, like Gecko) Version/18.3 Safari/605.1.15" version="26.0.16">
  <diagram name="Página-1" id="5WmRxbU48X5V3Hn4qjcN">
    <mxGraphModel dx="1026" dy="692" grid="0" gridSize="10" guides="0" tooltips="1" connect="1" arrows="1" fold="1" page="0" pageScale="1" pageWidth="827" pageHeight="1169" math="0" shadow="0">
      <root>
        <mxCell id="0" />
        <mxCell id="1" parent="0" />
        <mxCell id="W3BMJ99ppX0uqSHcq4_S-28" style="rounded=0;orthogonalLoop=1;jettySize=auto;html=1;entryX=0.5;entryY=0;entryDx=0;entryDy=0;strokeWidth=3;" parent="1" source="W3BMJ99ppX0uqSHcq4_S-2" target="W3BMJ99ppX0uqSHcq4_S-3" edge="1">
          <mxGeometry relative="1" as="geometry" />
        </mxCell>
        <mxCell id="W3BMJ99ppX0uqSHcq4_S-2" value="&lt;b&gt;API (Authentication)&lt;/b&gt;" style="rounded=0;whiteSpace=wrap;html=1;verticalAlign=top;fillColor=#fff2cc;strokeColor=#d6b656;" parent="1" vertex="1">
          <mxGeometry x="93" y="121" width="777" height="187" as="geometry" />
        </mxCell>
        <mxCell id="W3BMJ99ppX0uqSHcq4_S-3" value="&lt;b&gt;Aplicacion&lt;/b&gt;" style="rounded=0;whiteSpace=wrap;html=1;verticalAlign=top;fillColor=#dae8fc;strokeColor=#6c8ebf;" parent="1" vertex="1">
          <mxGeometry x="95" y="337" width="777" height="297" as="geometry" />
        </mxCell>
        <mxCell id="W3BMJ99ppX0uqSHcq4_S-9" style="edgeStyle=orthogonalEdgeStyle;rounded=0;orthogonalLoop=1;jettySize=auto;html=1;dashed=1;" parent="1" source="W3BMJ99ppX0uqSHcq4_S-6" target="W3BMJ99ppX0uqSHcq4_S-7" edge="1">
          <mxGeometry relative="1" as="geometry" />
        </mxCell>
        <mxCell id="W3BMJ99ppX0uqSHcq4_S-10" style="edgeStyle=orthogonalEdgeStyle;rounded=0;orthogonalLoop=1;jettySize=auto;html=1;" parent="1" source="W3BMJ99ppX0uqSHcq4_S-6" target="W3BMJ99ppX0uqSHcq4_S-8" edge="1">
          <mxGeometry relative="1" as="geometry" />
        </mxCell>
        <mxCell id="W3BMJ99ppX0uqSHcq4_S-15" value="DTO" style="edgeLabel;html=1;align=center;verticalAlign=middle;resizable=0;points=[];" parent="W3BMJ99ppX0uqSHcq4_S-10" vertex="1" connectable="0">
          <mxGeometry x="0.077" y="2" relative="1" as="geometry">
            <mxPoint as="offset" />
          </mxGeometry>
        </mxCell>
        <mxCell id="W3BMJ99ppX0uqSHcq4_S-6" value="Reservar" style="rounded=1;whiteSpace=wrap;html=1;" parent="1" vertex="1">
          <mxGeometry x="159" y="168" width="120" height="60" as="geometry" />
        </mxCell>
        <mxCell id="b7lOt4WXz3N9OoXlDQt_-6" style="edgeStyle=orthogonalEdgeStyle;rounded=0;orthogonalLoop=1;jettySize=auto;html=1;dashed=1;" parent="1" source="W3BMJ99ppX0uqSHcq4_S-7" target="b7lOt4WXz3N9OoXlDQt_-5" edge="1">
          <mxGeometry relative="1" as="geometry" />
        </mxCell>
        <mxCell id="W3BMJ99ppX0uqSHcq4_S-7" value="AuthenticationMapperDTOJson" style="rounded=1;whiteSpace=wrap;html=1;" parent="1" vertex="1">
          <mxGeometry x="121" y="359" width="180" height="60" as="geometry" />
        </mxCell>
        <mxCell id="W3BMJ99ppX0uqSHcq4_S-19" style="edgeStyle=orthogonalEdgeStyle;rounded=0;orthogonalLoop=1;jettySize=auto;html=1;dashed=1;" parent="1" source="W3BMJ99ppX0uqSHcq4_S-8" target="W3BMJ99ppX0uqSHcq4_S-12" edge="1">
          <mxGeometry relative="1" as="geometry" />
        </mxCell>
        <mxCell id="W3BMJ99ppX0uqSHcq4_S-8" value="Servicio Authentication&lt;div&gt;&lt;span style=&quot;background-color: transparent; color: light-dark(rgb(0, 0, 0), rgb(255, 255, 255));&quot;&gt;CreateSessionCommand&lt;/span&gt;&lt;/div&gt;" style="rounded=1;whiteSpace=wrap;html=1;" parent="1" vertex="1">
          <mxGeometry x="345" y="406" width="158" height="60" as="geometry" />
        </mxCell>
        <mxCell id="W3BMJ99ppX0uqSHcq4_S-12" value="Mapear autenticación" style="rounded=1;whiteSpace=wrap;html=1;" parent="1" vertex="1">
          <mxGeometry x="126" y="437" width="158" height="60" as="geometry" />
        </mxCell>
        <mxCell id="W3BMJ99ppX0uqSHcq4_S-17" style="rounded=0;orthogonalLoop=1;jettySize=auto;html=1;entryX=0.5;entryY=0;entryDx=0;entryDy=0;" parent="1" source="W3BMJ99ppX0uqSHcq4_S-16" target="W3BMJ99ppX0uqSHcq4_S-6" edge="1">
          <mxGeometry relative="1" as="geometry" />
        </mxCell>
        <mxCell id="W3BMJ99ppX0uqSHcq4_S-18" value="JSON" style="edgeLabel;html=1;align=center;verticalAlign=middle;resizable=0;points=[];" parent="W3BMJ99ppX0uqSHcq4_S-17" vertex="1" connectable="0">
          <mxGeometry x="-0.2765" y="-2" relative="1" as="geometry">
            <mxPoint as="offset" />
          </mxGeometry>
        </mxCell>
        <mxCell id="W3BMJ99ppX0uqSHcq4_S-16" value="" style="ellipse;whiteSpace=wrap;html=1;aspect=fixed;" parent="1" vertex="1">
          <mxGeometry x="196" y="45" width="42" height="42" as="geometry" />
        </mxCell>
        <mxCell id="W3BMJ99ppX0uqSHcq4_S-23" style="edgeStyle=orthogonalEdgeStyle;rounded=0;orthogonalLoop=1;jettySize=auto;html=1;entryX=0.5;entryY=0;entryDx=0;entryDy=0;exitX=0;exitY=0.75;exitDx=0;exitDy=0;" parent="1" source="W3BMJ99ppX0uqSHcq4_S-8" target="W3BMJ99ppX0uqSHcq4_S-22" edge="1">
          <mxGeometry relative="1" as="geometry" />
        </mxCell>
        <mxCell id="W3BMJ99ppX0uqSHcq4_S-22" value="Pulsar Publisher" style="rounded=1;whiteSpace=wrap;html=1;" parent="1" vertex="1">
          <mxGeometry x="371" y="542" width="158" height="60" as="geometry" />
        </mxCell>
        <mxCell id="b7lOt4WXz3N9OoXlDQt_-1" value="" style="endArrow=classic;html=1;rounded=0;" parent="1" edge="1">
          <mxGeometry width="50" height="50" relative="1" as="geometry">
            <mxPoint x="355" y="84" as="sourcePoint" />
            <mxPoint x="424" y="84" as="targetPoint" />
          </mxGeometry>
        </mxCell>
        <mxCell id="b7lOt4WXz3N9OoXlDQt_-2" value="" style="endArrow=classic;html=1;rounded=0;dashed=1;" parent="1" edge="1">
          <mxGeometry width="50" height="50" relative="1" as="geometry">
            <mxPoint x="446" y="87" as="sourcePoint" />
            <mxPoint x="515" y="87" as="targetPoint" />
          </mxGeometry>
        </mxCell>
        <mxCell id="b7lOt4WXz3N9OoXlDQt_-3" value="flujo request" style="text;html=1;align=center;verticalAlign=middle;whiteSpace=wrap;rounded=0;" parent="1" vertex="1">
          <mxGeometry x="357" y="54" width="60" height="30" as="geometry" />
        </mxCell>
        <mxCell id="b7lOt4WXz3N9OoXlDQt_-4" value="import" style="text;html=1;align=center;verticalAlign=middle;whiteSpace=wrap;rounded=0;" parent="1" vertex="1">
          <mxGeometry x="447" y="54" width="60" height="30" as="geometry" />
        </mxCell>
        <mxCell id="b7lOt4WXz3N9OoXlDQt_-5" value="AuthenticationDTO" style="rounded=1;whiteSpace=wrap;html=1;" parent="1" vertex="1">
          <mxGeometry x="640" y="347" width="158" height="60" as="geometry" />
        </mxCell>
      </root>
    </mxGraphModel>
  </diagram>
</mxfile>
